<svg xmlns="http://www.w3.org/2000/svg" width="1200" height="1600" viewBox="0 0 1200 1600" role="img" aria-label="Fotografia de capa em estilo rustic chic">
  <defs>
    <linearGradient id="bg" x1="0" x2="1" y1="0" y2="1">
      <stop offset="0" stop-color="#ead9c3"/>
      <stop offset=".35" stop-color="#b89170"/>
      <stop offset=".72" stop-color="#725542"/>
      <stop offset="1" stop-color="#2f231d"/>
    </linearGradient>
    <linearGradient id="dress" x1="0" x2="0" y1="0" y2="1">
      <stop offset="0" stop-color="#fffaf2"/>
      <stop offset="1" stop-color="#d6c0a8"/>
    </linearGradient>
    <filter id="grain">
      <feTurbulence type="fractalNoise" baseFrequency="0.85" numOctaves="3" stitchTiles="stitch"/>
      <feColorMatrix type="saturate" values="0"/>
      <feComponentTransfer><feFuncA type="table" tableValues="0 0.12"/></feComponentTransfer>
      <feBlend mode="multiply" in2="SourceGraphic"/>
    </filter>
    <filter id="soft" x="-20%" y="-20%" width="140%" height="140%"><feGaussianBlur stdDeviation="20"/></filter>
  </defs>
  <rect width="1200" height="1600" fill="url(#bg)"/>
  <rect width="1200" height="1600" filter="url(#grain)" opacity=".26"/>
  <circle cx="250" cy="260" r="260" fill="#f3e6d3" opacity=".28" filter="url(#soft)"/>
  <circle cx="980" cy="930" r="320" fill="#2b1d16" opacity=".32" filter="url(#soft)"/>
  <path d="M0 1240 C260 1100 335 1140 520 1250 C750 1390 942 1322 1200 1185 L1200 1600 L0 1600 Z" fill="#1f1713" opacity=".58"/>
  <g opacity=".9" transform="translate(598 840)">
    <ellipse cx="0" cy="210" rx="245" ry="360" fill="url(#dress)"/>
    <path d="M-226 495 C-95 574 109 574 235 498 C170 553 -170 555 -226 495Z" fill="#f4eadf" opacity=".8"/>
    <circle cx="-76" cy="-35" r="76" fill="#6f4935"/>
    <circle cx="85" cy="-30" r="78" fill="#3f2f28"/>
    <path d="M-145 74 C-90 -32 -4 -58 69 26 C22 110 -75 123 -145 74Z" fill="#e8d8c5"/>
    <path d="M10 66 C65 -25 150 -42 222 39 C170 118 70 129 10 66Z" fill="#2b211d"/>
    <path d="M-16 2 C42 -76 112 -98 178 -24 C118 14 53 29 -16 2Z" fill="#c49b78" opacity=".65"/>
  </g>
  <g opacity=".72" stroke="#e9d6bf" stroke-width="6" fill="none" stroke-linecap="round">
    <path d="M121 1379 C264 1312 357 1307 470 1379"/>
    <path d="M710 1358 C834 1282 973 1281 1110 1350"/>
  </g>
  <g fill="#d9b48a" opacity=".9">
    <circle cx="172" cy="278" r="7"/><circle cx="198" cy="320" r="4"/><circle cx="139" cy="350" r="5"/>
    <circle cx="1020" cy="246" r="8"/><circle cx="1072" cy="286" r="5"/><circle cx="985" cy="324" r="6"/>
  </g>
  <g stroke="#8c6b52" stroke-width="3" fill="none" opacity=".5">
    <path d="M70 420 C155 350 180 280 204 190"/><path d="M92 370 C130 375 155 390 180 425"/><path d="M150 302 C190 315 214 338 232 374"/>
    <path d="M1120 420 C1035 350 1010 280 986 190"/><path d="M1098 370 C1060 375 1035 390 1010 425"/><path d="M1040 302 C1000 315 976 338 958 374"/>
  </g>
  <rect x="54" y="54" width="1092" height="1492" rx="26" fill="none" stroke="#f2dfc7" stroke-width="4" opacity=".55"/>
</svg>
